<svg xmlns="http://www.w3.org/2000/svg" width="279.84" height="157.802" viewBox="0 0 279.84 157.802"><g transform="translate(32.018 15.179)"><path d="M1117.785,2639.393a5.708,5.708,0,0,0-5.7-5.7h-204.4a5.707,5.707,0,0,0-5.7,5.7v131.213a5.707,5.707,0,0,0,5.7,5.705h204.4a5.708,5.708,0,0,0,5.7-5.705Z" transform="translate(-901.979 -2633.688)" fill="#82aaff" fill-rule="evenodd"/></g><g transform="translate(43.29 29.107)"><rect width="193.26" height="119.338" transform="translate(0)" fill="#676e95"/></g><g transform="translate(0 139.089)"><path d="M800.71,2327.289a2.513,2.513,0,0,1,2.27-1.426c14.842-.013,124.849-.013,124.849-.013a2.866,2.866,0,0,1,2.144,1,3.632,3.632,0,0,1,.887,2.412h0c0,8.449-6.092,15.3-13.6,15.3H664.624c-7.513,0-13.6-6.853-13.6-15.3h0a3.638,3.638,0,0,1,.888-2.412,2.865,2.865,0,0,1,2.142-1h66.813a2.531,2.531,0,0,1,2.281,1.435,14.748,14.748,0,0,0,2.283,3.439c2.553.116,70.437.42,72.988,0A15.287,15.287,0,0,0,800.71,2327.289Z" transform="translate(-651.02 -2325.851)" fill="#82aaff" fill-rule="evenodd"/></g><g transform="translate(69.857 60.142)"><path d="M766.572,836.532a2.838,2.838,0,0,0-2.839-2.838H655.426a2.838,2.838,0,0,0-2.839,2.838v6.225H766.572Z" transform="translate(-652.587 -833.694)" fill="#82aaff" fill-rule="evenodd"/></g><g transform="translate(69.857 69.208)"><path d="M766.572-4841.09a2.838,2.838,0,0,1-2.839,2.838H655.426a2.839,2.839,0,0,1-2.839-2.838v-48.752H766.572Z" transform="translate(-652.587 4889.842)" fill="#fff" fill-rule="evenodd"/></g><g transform="translate(151.076 46.198)"><path d="M396.18,836.532a2.839,2.839,0,0,0-2.84-2.838H340.109a2.838,2.838,0,0,0-2.839,2.838v6.225h58.91Z" transform="translate(-337.27 -833.694)" fill="#82aaff" fill-rule="evenodd"/></g><g transform="translate(145.15 60.139)"><path d="M260.213-4887.286H224.36a2.841,2.841,0,0,1-2.839-2.838V-4939.4h38.692Z" transform="translate(-221.521 4939.398)" fill="rgba(0,0,0,0.07)" fill-rule="evenodd"/></g><g transform="translate(151.076 55.263)"><path d="M396.18-4841.09a2.838,2.838,0,0,1-.832,2.006,2.824,2.824,0,0,1-2.007.832H340.109a2.828,2.828,0,0,1-2.008-.832,2.838,2.838,0,0,1-.831-2.006v-48.752h58.91Z" transform="translate(-337.27 4889.842)" fill="#fff" fill-rule="evenodd"/></g><g transform="translate(137.01 19.218)"><circle cx="2.911" cy="2.911" r="2.911" fill="#676e95"/></g><g transform="translate(32.018 15.178)"><path d="M913.155,2092.219a8.645,8.645,0,0,1,.053.952v18.034a2.149,2.149,0,0,1,1.721,2.1v9.019a2.15,2.15,0,0,1-1.721,2.108v2.4a2.153,2.153,0,0,1,1.721,2.108v16.545a2.146,2.146,0,0,1-1.721,2.1v58.854a8.645,8.645,0,0,1-8.643,8.645H861.3V2097.924a5.708,5.708,0,0,1,5.7-5.7Z" transform="translate(-861.297 -2092.219)" fill="rgba(0,0,0,0.07)" fill-rule="evenodd"/></g><g transform="translate(3.328)"><path d="M1352.972,1641.754a8.642,8.642,0,0,0-8.645-8.643h-56.244a8.647,8.647,0,0,0-8.645,8.643v113.278a8.647,8.647,0,0,0,8.645,8.643h56.244a8.642,8.642,0,0,0,8.645-8.643Z" transform="translate(-1279.439 -1633.11)" fill="#82aaff" fill-rule="evenodd"/></g><g transform="translate(56.29 26.633)"><path d="M410.155,168.717a2.149,2.149,0,0,0-2.149-2.149H394.521a6.658,6.658,0,0,0-6.658,6.658h0a6.658,6.658,0,0,0,6.658,6.658h13.485a2.149,2.149,0,0,0,2.149-2.149Z" transform="translate(-387.863 -166.567)" fill="#82aaff" fill-rule="evenodd"/></g><g transform="translate(56.29 42.268)"><path d="M410.155,262.869a2.15,2.15,0,0,0-2.149-2.15h-11.5a8.644,8.644,0,0,0-8.644,8.643v3.557a8.644,8.644,0,0,0,8.644,8.643h11.5a2.15,2.15,0,0,0,2.149-2.15Z" transform="translate(-387.863 -260.719)" fill="#82aaff" fill-rule="evenodd"/></g><g transform="translate(35.389 8.106)"><path d="M271.658,45.189a1.736,1.736,0,0,0-1.736-1.736H258.63a1.736,1.736,0,0,0-1.736,1.736h0a1.736,1.736,0,0,0,1.736,1.736h11.292a1.736,1.736,0,0,0,1.736-1.736Z" transform="translate(-256.893 -43.452)" fill="rgba(0,0,0,0.07)" fill-rule="evenodd"/></g><g transform="translate(6.962 18.239)"><rect width="66.264" height="94.087" transform="translate(0 0)" fill="#676e95"/></g><g transform="translate(33.435 114.932)"><circle cx="6.658" cy="6.658" r="6.658" fill="rgba(0,0,0,0.07)"/></g><g transform="translate(30.033 8.105)"><circle cx="1.737" cy="1.737" r="1.737" fill="#676e95"/></g><g transform="translate(11.449 22.871)"><path d="M1354.112,890.552a.5.5,0,0,0-.5-.507h-56.275a.507.507,0,0,0-.508.507v9.119a.507.507,0,0,0,.508.507h56.275a.5.5,0,0,0,.5-.507Z" transform="translate(-1296.824 -890.046)" fill="#fff" fill-rule="evenodd"/></g><g transform="translate(11.449 38.157)"><path d="M1354.112,4630.867a2.634,2.634,0,0,0-2.633-2.635H1299.46a2.634,2.634,0,0,0-2.636,2.635v47.42a2.634,2.634,0,0,0,2.636,2.634h52.019a2.633,2.633,0,0,0,2.633-2.634Z" transform="translate(-1296.824 -4628.232)" fill="rgba(0,0,0,0.07)" fill-rule="evenodd"/></g><g transform="translate(12.053 97.505)"><path d="M260.408,890.552a.506.506,0,0,0-.506-.507h-10a.507.507,0,0,0-.507.507v9.119a.507.507,0,0,0,.507.507h10a.506.506,0,0,0,.506-.507Z" transform="translate(-249.391 -890.046)" fill="#82aaff" fill-rule="evenodd"/></g><g transform="translate(27.107 97.505)"><path d="M260.408,890.552a.506.506,0,0,0-.506-.507h-10a.507.507,0,0,0-.507.507v9.119a.507.507,0,0,0,.507.507h10a.506.506,0,0,0,.506-.507Z" transform="translate(-249.391 -890.046)" fill="#82aaff" fill-rule="evenodd"/></g><g transform="translate(42.161 97.505)"><path d="M260.408,890.552a.506.506,0,0,0-.506-.507h-10a.507.507,0,0,0-.507.507v9.119a.507.507,0,0,0,.507.507h10a.506.506,0,0,0,.506-.507Z" transform="translate(-249.391 -890.046)" fill="#82aaff" fill-rule="evenodd"/></g><g transform="translate(57.215 97.505)"><path d="M260.408,890.552a.506.506,0,0,0-.506-.507h-10a.507.507,0,0,0-.507.507v9.119a.507.507,0,0,0,.507.507h10a.506.506,0,0,0,.506-.507Z" transform="translate(-249.391 -890.046)" fill="#82aaff" fill-rule="evenodd"/></g></svg>