<?xml version="1.0" standalone="no"?><!-- Generator: Gravit.io --><svg xmlns="http://www.w3.org/2000/svg" xmlns:xlink="http://www.w3.org/1999/xlink" style="isolation:isolate" viewBox="0 0 375 812" width="375" height="812"><defs><clipPath id="_clipPath_XIFhUBGcZpvGcYest2SbsNuyRfDrNxEF"><rect width="375" height="812"/></clipPath></defs><g clip-path="url(#_clipPath_XIFhUBGcZpvGcYest2SbsNuyRfDrNxEF)"><path d=" M -377.857 105.999 L -162.792 319.676 C -162.792 319.676 -65.439 303.905 8.439 193.139 C 82.315 82.377 131.905 75.018 180.996 44.951 C 230.086 14.883 243.344 -16.435 271.973 -59.569 C 300.602 -102.702 336.146 -119.899 336.146 -119.899 L 104.266 -376.125 L -377.857 105.999 Z " fill="rgb(45,53,59)"/><path d=" M 318.608 -52.125 C 318.608 -52.125 256.08 -59.974 202.685 9.944 C 149.29 79.86 147.884 155.485 76.926 197.578 C 5.966 239.672 -50.943 243.238 -76.937 301.027 C -102.932 358.817 -185.132 263.928 -185.132 263.928 L 230.788 -158.429 L 318.608 -52.125 Z " fill="rgb(199,237,230)"/><path d=" M 217.377 17.997 C 201.534 44.389 183.135 70.429 158.269 92.866 C 167.156 73.446 176.514 53.413 188.397 33.429 C 198.35 28.113 208.056 23.011 217.377 17.997 Z " fill="rgb(175,162,255)"/><path d=" M 189.848 40.952 C 178.177 57.788 168.985 74.666 160.256 91.028 C 148.861 99.851 136.085 108.009 121.535 115.228 C 70.37 140.619 40.1 158.077 19.341 174.698 L 19.341 160.076 C 25.771 152.276 32.905 144.271 40.86 136.08 C 84.769 90.867 140.392 63.61 189.848 40.952 Z " fill="rgb(175,162,255)"/><path d=" M -377.857 105.999 L -162.792 319.676 C -162.792 319.676 -65.439 303.905 8.439 193.139 C 82.315 82.377 131.905 75.018 180.996 44.951 C 230.086 14.883 243.344 -16.435 271.973 -59.569 C 300.602 -102.702 336.146 -119.899 336.146 -119.899 L 104.266 -376.125 L -377.857 105.999 Z " fill="rgb(45,53,59)"/><path d=" M 86.121 792.001 C 86.121 792.001 131.46 797.646 170.175 747.361 C 208.891 697.077 209.91 642.687 261.361 612.414 C 312.813 582.14 354.077 579.575 372.925 538.013 C 391.772 496.45 451.374 564.695 451.374 564.695 L 149.798 868.455 L 86.121 792.001 Z " fill="rgb(250,175,50)"/><path d=" M 183.967 726.111 C 191.426 713.793 197.301 701.444 202.88 689.472 C 210.163 683.017 218.329 677.048 227.628 671.766 C 260.33 653.189 279.676 640.415 292.944 628.254 L 292.944 638.953 C 288.835 644.659 284.275 650.516 279.19 656.509 C 251.126 689.59 215.576 709.533 183.967 726.111 Z " fill="rgb(243,124,54)"/><path d=" M 589.789 678.545 L 435.33 525.083 C 435.33 525.083 365.412 536.411 312.353 615.961 C 259.296 695.51 223.68 700.796 188.424 722.389 C 153.168 743.984 143.647 766.476 123.085 797.454 C 102.524 828.432 76.997 840.783 76.997 840.783 L 243.531 1024.803 L 589.789 678.545 Z " fill="rgb(45,53,59)"/><path d=" M 86.121 791.408 C 86.121 791.408 131.46 797.054 170.175 746.768 C 208.891 696.485 209.91 642.095 261.361 611.821 C 312.813 581.548 354.077 578.983 372.925 537.421 C 391.772 495.858 451.374 564.103 451.374 564.103 L 149.798 867.863 L 86.121 791.408 Z " fill="rgb(199,237,230)"/><path d=" M 162.295 741.747 C 173.958 723.521 187.503 705.538 205.808 690.043 C 199.266 703.455 192.376 717.289 183.63 731.09 C 176.302 734.761 169.157 738.285 162.295 741.747 Z " fill="rgb(175,162,255)"/><path d=" M 182.406 731.839 C 190.812 718.298 197.432 704.723 203.719 691.562 C 211.927 684.467 221.129 677.906 231.608 672.099 C 268.46 651.678 290.262 637.637 305.213 624.268 L 305.213 636.029 C 300.582 642.301 295.444 648.74 289.714 655.328 C 258.089 691.692 218.026 713.615 182.406 731.839 Z " fill="rgb(72,100,214)"/><path d=" M 589.789 678.545 L 435.33 525.083 C 435.33 525.083 365.412 536.411 312.353 615.961 C 259.296 695.51 223.68 700.796 188.424 722.389 C 153.168 743.984 143.647 766.476 123.085 797.454 C 102.524 828.432 76.997 840.783 76.997 840.783 L 243.531 1024.803 L 589.789 678.545 Z " fill="rgb(45,53,59)"/></g></svg>