<?xml version="1.0" standalone="no"?><!-- Generator: Gravit.io --><svg xmlns="http://www.w3.org/2000/svg" xmlns:xlink="http://www.w3.org/1999/xlink" style="isolation:isolate" viewBox="0 0 768 1024" width="768" height="1024"><defs><clipPath id="_clipPath_UkxNlFkwZ1rJkGZ9V3V0b4I8pGIzI3rr"><rect width="768" height="1024"/></clipPath></defs><g clip-path="url(#_clipPath_UkxNlFkwZ1rJkGZ9V3V0b4I8pGIzI3rr)"><path d=" M -230.834 118.958 L -66.924 281.81 C -66.924 281.81 7.273 269.789 63.578 185.371 C 119.882 100.954 157.677 95.345 195.091 72.431 C 232.504 49.514 242.609 25.646 264.428 -7.228 C 286.248 -40.102 313.337 -53.208 313.337 -53.208 L 136.612 -248.489 L -230.834 118.958 Z " fill="rgb(45,53,59)"/><path d=" M 299.971 -1.555 C 299.971 -1.555 252.315 -7.537 211.621 45.75 C 170.926 99.036 169.855 156.673 115.775 188.754 C 61.693 220.835 18.321 223.553 -1.49 267.596 C -21.302 311.64 -83.95 239.322 -83.95 239.322 L 233.04 -82.574 L 299.971 -1.555 Z " fill="rgb(199,237,230)"/><path d=" M 222.819 51.888 C 210.744 72.002 196.721 91.848 177.77 108.949 C 184.543 94.147 191.675 78.879 200.731 63.649 C 208.317 59.598 215.714 55.709 222.819 51.888 Z " fill="rgb(175,162,255)"/><path d=" M 201.837 69.383 C 192.943 82.214 185.937 95.077 179.284 107.548 C 170.6 114.272 160.862 120.489 149.774 125.991 C 110.778 145.343 87.708 158.648 71.887 171.316 L 71.887 160.172 C 76.788 154.227 82.225 148.126 88.288 141.884 C 121.753 107.425 164.145 86.652 201.837 69.383 Z " fill="rgb(175,162,255)"/><path d=" M -230.834 118.958 L -66.924 281.81 C -66.924 281.81 7.273 269.789 63.578 185.371 C 119.882 100.954 157.677 95.345 195.091 72.431 C 232.504 49.514 242.609 25.646 264.428 -7.228 C 286.248 -40.102 313.337 -53.208 313.337 -53.208 L 136.612 -248.489 L -230.834 118.958 Z " fill="rgb(45,53,59)"/><path d=" M 431.721 1021.908 C 431.721 1021.908 482.057 1027.659 525.04 976.428 C 568.025 925.198 569.156 869.784 626.278 838.941 C 683.402 808.098 729.214 805.484 750.14 763.14 C 771.065 720.796 837.237 790.324 837.237 790.324 L 502.417 1099.801 L 431.721 1021.908 Z " fill="rgb(250,175,50)"/><path d=" M 540.353 954.778 C 548.634 942.228 555.157 929.646 561.351 917.449 C 569.437 910.873 578.503 904.792 588.827 899.41 C 625.133 880.484 646.612 867.469 661.342 855.079 L 661.342 865.979 C 656.78 871.793 651.718 877.761 646.073 883.866 C 614.915 917.57 575.446 937.888 540.353 954.778 Z " fill="rgb(243,124,54)"/><path d=" M 990.909 906.317 L 819.424 749.967 C 819.424 749.967 741.799 761.508 682.891 842.556 C 623.985 923.601 584.444 928.986 545.302 950.986 C 506.159 972.987 495.588 995.903 472.76 1027.464 C 449.932 1059.025 421.591 1071.608 421.591 1071.608 L 606.483 1259.091 L 990.909 906.317 Z " fill="rgb(45,53,59)"/><path d=" M 431.721 1021.304 C 431.721 1021.304 482.057 1027.056 525.04 975.824 C 568.025 924.594 569.156 869.181 626.278 838.337 C 683.402 807.494 729.214 804.881 750.14 762.537 C 771.065 720.192 837.237 789.721 837.237 789.721 L 502.417 1099.197 L 431.721 1021.304 Z " fill="rgb(199,237,230)"/><path d=" M 516.292 970.709 C 529.24 952.139 544.279 933.818 564.601 918.031 C 557.338 931.695 549.689 945.79 539.978 959.851 C 531.843 963.591 523.911 967.181 516.292 970.709 Z " fill="rgb(175,162,255)"/><path d=" M 538.619 960.614 C 547.952 946.818 555.303 932.987 562.282 919.579 C 571.395 912.35 581.611 905.666 593.245 899.75 C 634.159 878.944 658.365 864.639 674.964 851.018 L 674.964 863 C 669.823 869.391 664.118 875.951 657.757 882.663 C 622.645 919.712 578.167 942.047 538.619 960.614 Z " fill="rgb(72,100,214)"/><path d=" M 990.909 906.317 L 819.424 749.967 C 819.424 749.967 741.799 761.508 682.891 842.556 C 623.985 923.601 584.444 928.986 545.302 950.986 C 506.159 972.987 495.588 995.903 472.76 1027.464 C 449.932 1059.025 421.591 1071.608 421.591 1071.608 L 606.483 1259.091 L 990.909 906.317 Z " fill="rgb(45,53,59)"/></g></svg>