<?xml version="1.0" standalone="no"?><!-- Generator: Gravit.io --><svg xmlns="http://www.w3.org/2000/svg" xmlns:xlink="http://www.w3.org/1999/xlink" style="isolation:isolate" viewBox="0 0 1920 1280" width="1920" height="1280"><defs><clipPath id="_clipPath_vB5fGFZ6b6mpuVG8VJziNHozyYpy3iH7"><rect width="1920" height="1280"/></clipPath></defs><g clip-path="url(#_clipPath_vB5fGFZ6b6mpuVG8VJziNHozyYpy3iH7)"><clipPath id="_clipPath_ijeuemy0tHbM0EXaUxpaPYTzifjwmM0z"><rect x="0" y="0" width="1920" height="1280" transform="matrix(1,0,0,1,0,0)" fill="rgb(255,255,255)"/></clipPath><g clip-path="url(#_clipPath_ijeuemy0tHbM0EXaUxpaPYTzifjwmM0z)"><g><path d=" M 1181.818 1278.925 C 1181.818 1278.925 1343.242 1299.025 1481.085 1119.987 C 1618.933 940.955 1622.561 747.303 1805.747 639.516 C 1988.939 531.728 2135.857 522.595 2202.964 374.616 C 2270.07 226.635 2482.279 469.616 2482.279 469.616 L 1408.535 1551.136 L 1181.818 1278.925 Z " fill="rgb(250,175,50)"/><path d=" M 1530.191 1044.328 C 1556.749 1000.47 1577.667 956.501 1597.531 913.876 C 1623.461 890.894 1652.535 869.642 1685.644 850.836 C 1802.076 784.693 1870.959 739.213 1918.197 695.914 L 1918.197 734.006 C 1903.566 754.323 1887.331 775.177 1869.228 796.515 C 1769.308 914.297 1642.733 985.302 1530.191 1044.328 Z " fill="rgb(243,124,54)"/><path d=" M 2975.095 874.971 L 2425.154 328.581 C 2425.154 328.581 2176.216 368.911 1987.303 652.147 C 1798.395 935.376 1671.589 954.194 1546.062 1031.076 C 1420.534 1107.963 1386.633 1188.045 1313.425 1298.341 C 1240.218 1408.637 1149.33 1452.612 1149.33 1452.612 L 1742.265 2107.803 L 2975.095 874.971 Z " fill="rgb(45,53,59)"/><path d=" M 1181.818 1276.815 C 1181.818 1276.815 1343.242 1296.915 1481.085 1117.877 C 1618.933 938.845 1622.561 745.194 1805.747 637.406 C 1988.939 529.619 2135.857 520.486 2202.964 372.507 C 2270.07 224.526 2482.279 467.507 2482.279 467.507 L 1408.535 1549.027 L 1181.818 1276.815 Z " fill="rgb(199,237,230)"/><path d=" M 1453.03 1100 C 1494.554 1035.106 1542.781 971.079 1607.955 915.909 C 1584.662 963.662 1560.133 1012.919 1528.99 1062.055 C 1502.902 1075.125 1477.462 1087.673 1453.03 1100 Z " fill="rgb(175,162,255)"/><path d=" M 1524.632 1064.722 C 1554.561 1016.509 1578.134 968.176 1600.518 921.32 C 1629.74 896.057 1662.503 872.696 1699.814 852.022 C 1831.023 779.314 1908.648 729.32 1961.882 681.722 L 1961.882 723.595 C 1945.394 745.929 1927.099 768.853 1906.698 792.31 C 1794.097 921.783 1651.458 999.836 1524.632 1064.722 Z " fill="rgb(72,100,214)"/><path d=" M 2975.095 874.971 L 2425.154 328.581 C 2425.154 328.581 2176.216 368.911 1987.303 652.147 C 1798.395 935.376 1671.589 954.194 1546.062 1031.076 C 1420.534 1107.963 1386.633 1188.045 1313.425 1298.341 C 1240.218 1408.637 1149.33 1452.612 1149.33 1452.612 L 1742.265 2107.803 L 2975.095 874.971 Z " fill="rgb(45,53,59)"/><path d=" M -941.67 135.331 L -391.729 681.722 C -391.729 681.722 -142.791 641.392 46.122 358.156 C 235.03 74.927 361.836 56.109 487.364 -20.773 C 612.891 -97.66 646.793 -177.742 720 -288.039 C 793.207 -398.335 884.095 -442.309 884.095 -442.309 L 291.16 -1097.5 L -941.67 135.331 Z " fill="rgb(45,53,59)"/><path d=" M 839.25 -269.004 C 839.25 -269.004 679.36 -289.076 542.826 -110.289 C 406.289 68.491 402.695 261.871 221.25 369.507 C 39.798 477.143 -105.723 486.263 -172.192 634.034 C -238.662 781.807 -448.854 539.168 -448.854 539.168 L 614.687 -540.834 L 839.25 -269.004 Z " fill="rgb(199,237,230)"/><path d=" M 580.395 -89.697 C 539.883 -22.211 492.834 44.376 429.25 101.75 C 451.975 52.089 475.905 0.863 506.289 -50.236 C 531.74 -63.829 556.559 -76.877 580.395 -89.697 Z " fill="rgb(175,162,255)"/><path d=" M 510 -31 C 480.157 12.051 456.651 55.21 434.331 97.05 C 405.193 119.609 372.523 140.47 335.319 158.93 C 204.484 223.856 127.082 268.498 74 311 L 74 273.61 C 90.441 253.666 108.684 233.196 129.026 212.251 C 241.305 96.637 383.537 26.94 510 -31 Z " fill="rgb(175,162,255)"/><path d=" M -941.67 135.331 L -391.729 681.722 C -391.729 681.722 -142.791 641.392 46.122 358.156 C 235.03 74.927 361.836 56.109 487.364 -20.773 C 612.891 -97.66 646.793 -177.742 720 -288.039 C 793.207 -398.335 884.095 -442.309 884.095 -442.309 L 291.16 -1097.5 L -941.67 135.331 Z " fill="rgb(45,53,59)"/></g></g></g></svg>