<svg xmlns="http://www.w3.org/2000/svg" width="297.359" height="244.872" viewBox="0 0 297.359 244.872"><g transform="translate(44.763 75.697)"><path d="M1091.986,1250.935s12.176-14.136,21.175-24.585a16.175,16.175,0,0,1,21.4-2.784c8.058,5.529,18.685,12.816,26.948,18.483a16.175,16.175,0,0,0,22.215-3.806l6.8-9.325" transform="translate(-1091.986 -1220.731)" fill="none" stroke="#676e95" stroke-linecap="round" stroke-linejoin="round" stroke-miterlimit="1.5" stroke-width="3.552" fill-rule="evenodd"/></g><path d="M1067.935,1562.6c1.972-1.025,5.892-1.775,10.563-1.9,7.058-.177,13.184,1.158,13.672,2.981a.964.964,0,0,1-.19.847c20.335-5.816,52.262-11.055,81.167-11.789h0c1.137-.028,3.662-.645,3.553.226-.1.791.125,1.633-.016,2.182a1.49,1.49,0,0,1-.149.367,2.728,2.728,0,0,0-.347,2.2c.936,3.5,8.51,6.171,16.9,5.957s14.443-3.231,13.507-6.731h0a1.865,1.865,0,0,1,1.089-2.037,5.6,5.6,0,0,1,3.364-.641,231.451,231.451,0,0,1,26.942,4.477,116.794,116.794,0,0,1,30.47-4.5c32.459-.827,61.675,9.2,65.2,22.376,3.166,11.829-15.439,22.2-42.764,24.8-4.949.48-9.381,2.133-12.329,4.6-8.353,6.941-22.283,12.829-39.92,16.6-1.44.311-2.384,1.154-2.339,2.081s1.073,1.73,2.541,1.988c8.385,1.464,13.846,3.186,14.374,5.166,2.98,11.14-29.184,21.065-71.786,22.146s-79.606-7.082-82.587-18.226a5.862,5.862,0,0,1-.069-2.307c1.843-2.936,18.694,4.106,31.951,3.727,15.919-.456,26.889-8.389,1.242-12.664h0c-56.1-7.248,32.77-28.45-52.592-44.917-5.7-1.1-8.292-2.6-8.373-4.32h0v-1.654h.625c1.553-2.041,5.925-4.3,12.3-6.554-1.149.121-2.38.2-3.67.234-7.058.178-13.184-1.153-13.672-2.981a.8.8,0,0,1-.024-.339h-.008v-1.654h1.375Zm23.876,62.905a11.664,11.664,0,0,1,6.13-1.541,14.525,14.525,0,0,1,7.469,1.541h1.307v1.654h0c.145,1.65-2.92,3.033-7.082,3.138-4.352.109-8.264-1.218-8.732-2.964a1.5,1.5,0,0,1-.036-.173h-.02v-1.654Zm209.079-11.031c8.389-.21,15.612,1.15,16.988,4.892a9.926,9.926,0,0,1,.065,2.045c-.153,3-6.078,5.562-13.656,5.755-8.393.214-15.967-2.456-16.9-5.957a14.788,14.788,0,0,1-.089-2.109C1287.513,1616,1293.224,1614.677,1300.891,1614.479Zm22.1-9.389c4.045-.105,7.9-.028,8.768,1.536a9.246,9.246,0,0,1-.125,2.351c-.633,1.327-3.392,2.351-6.949,2.44-4.352.113-8.264-1.218-8.732-2.964a7.573,7.573,0,0,1-.044-2C1316.431,1605.07,1319.33,1605.183,1322.992,1605.09Zm-247.067-8.058c1.383-2.545,6.57-4.481,13.233-4.65,7.312-.185,14,1.815,16.221,4.65h.742v1.6c.536,3.376-5.408,6.235-13.568,6.441-8.389.214-15.963-2.456-16.9-5.957a2.721,2.721,0,0,1-.081-.427h0v-.041a2.509,2.509,0,0,1,0-.492v-1.121Z" transform="translate(-1066.558 -1409.225)" fill="#63b4f5" fill-rule="evenodd"/><g transform="translate(0 141.67)"><path d="M1275.657,843.634c20.335-5.817,52.262-11.055,81.163-11.791h0a4.534,4.534,0,0,1,2.9.844,1.461,1.461,0,0,1,.488,1.932,2.724,2.724,0,0,0-.347,2.2c.936,3.5,8.51,6.172,16.9,5.959s14.443-3.23,13.507-6.732h0a1.865,1.865,0,0,1,1.089-2.038,5.591,5.591,0,0,1,3.364-.64,231.1,231.1,0,0,1,26.938,4.478,116.662,116.662,0,0,1,30.474-4.5c32.459-.826,61.675,9.2,65.2,22.38,3.166,11.827-15.443,22.2-42.764,24.793-4.949.481-9.385,2.136-12.329,4.6-8.353,6.94-22.283,12.83-39.924,16.6-1.436.309-2.384,1.15-2.335,2.08s1.073,1.731,2.541,1.989c8.385,1.464,13.842,3.186,14.374,5.165,2.98,11.141-29.184,21.068-71.786,22.149s-79.607-7.085-82.587-18.225c-1.428-5.326,17.3,1.834,31.878,1.417,15.923-.456,26.893-8.389,1.246-12.664h0c-56.1-7.249,32.769-28.449-52.593-44.918-13.753-2.653-9.389-7.595,4.553-12.529-1.149.123-2.384.2-3.67.235-7.058.181-13.188-1.155-13.676-2.977s4.848-3.45,11.91-3.629,13.184,1.155,13.672,2.977A.98.98,0,0,1,1275.657,843.634Zm5.961,59.433c4.352-.11,8.264,1.219,8.732,2.965s-2.686,3.254-7.038,3.365-8.268-1.216-8.732-2.965S1277.266,903.178,1281.618,903.068Zm202.945-9.49c8.393-.213,15.967,2.457,16.9,5.959s-5.114,6.518-13.507,6.732-15.963-2.457-16.9-5.959S1476.174,893.791,1484.563,893.577Zm22.106-9.392c4.352-.11,8.264,1.219,8.732,2.965s-2.686,3.254-7.038,3.365-8.268-1.216-8.732-2.965S1502.317,884.3,1506.669,884.185Zm-233.835-12.708c8.393-.213,15.963,2.457,16.9,5.959s-5.114,6.516-13.507,6.729-15.963-2.455-16.9-5.957S1264.445,871.691,1272.834,871.477Z" transform="translate(-1250.234 -831.842)" fill="#82aaff" fill-rule="evenodd"/></g><path d="M1191.85,1554.549a371.316,371.316,0,0,1,56.057-6.042h0a4.536,4.536,0,0,1,2.9.843,1.463,1.463,0,0,1,.484,1.936,2.717,2.717,0,0,0-.347,2.194c.936,3.5,8.51,6.171,16.9,5.961s14.443-3.23,13.507-6.735h0a1.865,1.865,0,0,1,1.089-2.037,5.6,5.6,0,0,1,3.364-.637c5.316.577,10.474,1.3,15.435,2.162l-20.654,48.721c-20.3,7.554-52.883-20.617-82.659-40.622h0A25.6,25.6,0,0,1,1191.85,1554.549Z" transform="translate(-1141.317 -1406.836)" fill="rgba(0,0,0,0.07)" fill-rule="evenodd"/><g transform="translate(51.065 107.579)"><path d="M1380.15,1472.973a6.551,6.551,0,0,0-7.076-8.918l-179.9,27.684,88.206,58.741,151.5-23.312a7.774,7.774,0,0,0,.58-15.255h0a11.307,11.307,0,0,1-7.236-5.381c-.557-.974-1.178-2.062-1.842-3.211a24.775,24.775,0,0,0-25.557-12.115l-3.557.587a13.842,13.842,0,0,1-15.11-18.82Z" transform="translate(-1193.17 -1463.978)" fill="#676e95" fill-rule="evenodd"/></g><g transform="translate(36.727 80.393)"><path d="M2071.2,1922.507a32.811,32.811,0,0,1-14.222-27.173c0-17.995,13.676-32.043,31.208-32.043,8.27,0,14.623,2.692,22.018,8.013h0l67.124,46.076-32.7,55.794-73.433-50.668Z" transform="translate(-2056.982 -1863.29)" fill="#676e95" fill-rule="evenodd"/></g><g transform="translate(107.503 128.876)"><ellipse cx="31.765" cy="32.601" rx="31.765" ry="32.601" transform="translate(0 0)" fill="#565a74"/></g><g transform="translate(124.068 145.874)"><ellipse cx="15.204" cy="15.604" rx="15.204" ry="15.604" transform="translate(0 0)" fill="#fff"/></g><g transform="translate(137.833 0)"><path d="M1528.031,1263.054a5.621,5.621,0,0,1,6.622-2.315,52.05,52.05,0,0,1,14,7.373c5.441,4.235,9.357,10.414,11.2,13.7a3.535,3.535,0,0,1-.448,4.078c-9.01,10.127-52.375,58.848-52.375,58.848a11.358,11.358,0,0,1-15.181,1.621h0a14.6,14.6,0,0,1-3.759-19.537C1499.464,1308.669,1520.985,1274.307,1528.031,1263.054Z" transform="translate(-1485.866 -1260.421)" fill="#676e95" fill-rule="evenodd"/></g><g transform="translate(124.066 145.874)"><path d="M1634.27-1843.024c6.437.553,11.466,5.138,11.466,10.708,0,5.941-5.727,10.764-12.781,10.764-6.215,0-11.4-3.743-12.547-8.691a16.062,16.062,0,0,0-.238,2.767,15.416,15.416,0,0,0,15.2,15.6,15.415,15.415,0,0,0,15.2-15.6,15.413,15.413,0,0,0-15.2-15.6c-.375,0-.742.012-1.109.041Z" transform="translate(-1620.17 1843.08)" fill="#eee" fill-rule="evenodd"/></g></svg>