<svg xmlns="http://www.w3.org/2000/svg" width="202.411" height="184.573" viewBox="0 0 202.411 184.573"><g transform="translate(0 76.688)"><path d="M489.918,1133.381a1.934,1.934,0,0,0-1.616-.413l-79.6,16.363a2.345,2.345,0,0,0-1.737,1.936,2.72,2.72,0,0,0,.875,2.6l106.856,86.492a1.932,1.932,0,0,0,1.616.413l79.6-16.363a2.345,2.345,0,0,0,1.737-1.936,2.72,2.72,0,0,0-.875-2.6Z" transform="translate(-406.912 -1132.929)" fill="#676e95" fill-rule="evenodd"/></g><g transform="translate(12.161 76.542)"><path d="M1013.49,1205.716l-78.882,16.214-98.982-89.018L905.74,1118.5Z" transform="translate(-835.626 -1118.5)" fill="rgba(0,0,0,0.07)" fill-rule="evenodd"/></g><g transform="translate(17.157 41.932)"><path d="M550.011,1031.05a1.99,1.99,0,0,0-1.943-.739l-80.519,16.552a2.3,2.3,0,0,0-1.68,1.694,2.812,2.812,0,0,0,.492,2.52l92.586,112.541a1.99,1.99,0,0,0,1.943.739l80.519-16.551a2.3,2.3,0,0,0,1.68-1.694,2.812,2.812,0,0,0-.492-2.52Z" transform="translate(-465.761 -1030.273)" fill="#82aaff" fill-rule="evenodd"/></g><g transform="translate(30.261 41.735)"><path d="M1061.971,1129.846l-83.38,17.141L897.708,1030.15l70.346-14.46Z" transform="translate(-897.708 -1015.69)" fill="rgba(0,0,1,0.07)" fill-rule="evenodd"/></g><g transform="translate(46.258 6.582)"><path d="M651.26,928a3.552,3.552,0,0,0-3.853-2.075l-80.039,16.453a2.244,2.244,0,0,0-1.587,1.419,2.874,2.874,0,0,0,.092,2.322L634.08,1082.33a2.074,2.074,0,0,0,2.25,1.212l81.1-16.671a2.243,2.243,0,0,0,1.587-1.419,2.87,2.87,0,0,0-.092-2.322Z" transform="translate(-565.581 -925.86)" fill="#fff" fill-rule="evenodd"/></g><g transform="translate(47.749 6.58)"><path d="M957.7,928.458a1.933,1.933,0,0,1,.294-.085l80.039-16.453a3.554,3.554,0,0,1,3.854,2.076c8.688,17.353,58.209,116.251,67.664,135.126a2.87,2.87,0,0,1,.289,1.412,1.73,1.73,0,0,1-.294.085l-81.1,16.671a2.068,2.068,0,0,1-2.251-1.212c-6.892-13.762-58.532-116.888-68.206-136.208A2.846,2.846,0,0,1,957.7,928.458Z" transform="translate(-957.693 -911.853)" fill="rgba(0,0,0,0.07)" fill-rule="evenodd"/></g><g transform="translate(48.773)"><path d="M659.886,908.559a3.552,3.552,0,0,0-3.853-2.075L576,922.936a2.244,2.244,0,0,0-1.587,1.419,2.874,2.874,0,0,0,.092,2.321l68.206,136.211a2.074,2.074,0,0,0,2.25,1.212l81.1-16.671a2.244,2.244,0,0,0,1.587-1.419,2.87,2.87,0,0,0-.092-2.322Z" transform="translate(-574.207 -906.418)" fill="#fff" fill-rule="evenodd"/></g><g transform="translate(62.424 17.178)"><path d="M656.331,957.608a1.2,1.2,0,0,0-1.365-.408l-33.013,6.787a1.382,1.382,0,0,0-.74.414.542.542,0,0,0-.145.592l16.367,32.686a.7.7,0,0,0,.8.238l33.451-6.876a1.382,1.382,0,0,0,.74-.414.541.541,0,0,0,.146-.591Z" transform="translate(-621.028 -957.157)" fill="#676e95" fill-rule="evenodd"/></g><g transform="translate(112.392 50.286)"><path d="M827.727,1055.4a1.2,1.2,0,0,0-1.364-.407l-33.013,6.786a1.382,1.382,0,0,0-.74.414.542.542,0,0,0-.145.592l16.367,32.687a.7.7,0,0,0,.8.238l33.451-6.877a1.383,1.383,0,0,0,.74-.414.541.541,0,0,0,.146-.592Z" transform="translate(-792.424 -1054.946)" fill="#82aaff" fill-rule="evenodd"/></g><g transform="translate(101.161 10.849)"><path d="M779.589,938.5c-.034-.068-.363-.051-.823.043l-24.018,4.937a4.1,4.1,0,0,0-.6.172c-.169.065-.26.122-.245.153l2.991,5.976c.02.04.212.03.48-.025l24.336-5a4.115,4.115,0,0,0,.6-.172c.169-.065.26-.122.245-.153Z" transform="translate(-753.899 -938.461)" fill="#eee" fill-rule="evenodd"/></g><g transform="translate(105.707 19.939)"><path d="M795.184,965.354c-.034-.068-.363-.051-.823.043l-24.018,4.937a4.108,4.108,0,0,0-.6.172c-.169.065-.26.122-.245.153l2.992,5.976c.02.04.212.03.48-.025l24.336-5a4.1,4.1,0,0,0,.6-.172c.169-.065.26-.122.245-.153Z" transform="translate(-769.494 -965.312)" fill="#eee" fill-rule="evenodd"/></g><g transform="translate(110.588 29.465)"><path d="M811.925,993.49c-.034-.069-.363-.051-.823.043l-24.018,4.937a4.113,4.113,0,0,0-.6.172c-.169.065-.26.122-.245.153l2.992,5.976c.02.04.212.03.48-.025l24.336-5a4.1,4.1,0,0,0,.6-.172c.169-.065.26-.122.245-.153Z" transform="translate(-786.235 -993.448)" fill="#eee" fill-rule="evenodd"/></g><g transform="translate(115.135 38.554)"><path d="M827.521,1020.337c-.034-.068-.363-.051-.823.043l-24.018,4.937a4.11,4.11,0,0,0-.6.172c-.169.065-.26.122-.245.153l2.992,5.976c.02.04.212.03.48-.025l24.336-5a4.082,4.082,0,0,0,.6-.172c.169-.065.26-.122.245-.153Z" transform="translate(-801.831 -1020.295)" fill="#eee" fill-rule="evenodd"/></g><g transform="translate(81.186 59.332)"><path d="M711.073,1081.706c-.034-.068-.363-.051-.823.043l-24.018,4.937a4.106,4.106,0,0,0-.6.172c-.169.065-.26.122-.245.153l2.992,5.976c.02.04.212.03.48-.025l24.336-5a4.117,4.117,0,0,0,.6-.172c.169-.065.26-.122.245-.153Z" transform="translate(-685.383 -1081.665)" fill="#eee" fill-rule="evenodd"/></g><g transform="translate(85.732 68.422)"><path d="M726.669,1108.557c-.034-.069-.363-.051-.823.043l-24.018,4.937a4.111,4.111,0,0,0-.6.172c-.169.065-.26.122-.245.153l2.992,5.976c.02.04.212.03.48-.025l24.336-5a4.1,4.1,0,0,0,.6-.172c.169-.065.26-.122.245-.153Z" transform="translate(-700.979 -1108.515)" fill="#eee" fill-rule="evenodd"/></g><g transform="translate(90.613 77.949)"><path d="M743.41,1136.7c-.034-.068-.363-.051-.823.043l-24.018,4.937a4.068,4.068,0,0,0-.6.172c-.169.065-.26.122-.245.153l2.992,5.976c.02.04.212.03.48-.025l24.336-5a4.1,4.1,0,0,0,.6-.172c.169-.065.26-.122.245-.153Z" transform="translate(-717.72 -1136.655)" fill="#eee" fill-rule="evenodd"/></g><g transform="translate(95.16 87.039)"><path d="M759.005,1163.547c-.034-.069-.363-.051-.823.043l-24.018,4.937a4.1,4.1,0,0,0-.6.172c-.169.065-.26.122-.245.153l2.992,5.976c.02.04.212.03.48-.025l24.336-5a4.112,4.112,0,0,0,.6-.172c.169-.065.26-.122.245-.153Z" transform="translate(-733.315 -1163.505)" fill="#eee" fill-rule="evenodd"/></g><g transform="translate(115.493 128.257)"><path d="M880.667,1285.278a8.219,8.219,0,0,0-2.388.323l-72.541,14.912c-.632.13-1.326.3-1.859.446s-.839.264-.818.3l3.99,7.967a4.79,4.79,0,0,0,1.394-.189l73.5-15.109c.631-.13,1.325-.3,1.859-.446s.839-.264.818-.305Z" transform="translate(-803.06 -1285.249)" fill="#eee" fill-rule="evenodd"/></g><g transform="translate(52.008 10.37) rotate(-24.374)"><path d="M10.277.546a7.362,7.362,0,0,1,3.914,7.1c-.464,9.25-.983,18.5-1.475,27.753-.208,3.524-3.756,6.719-6.9,5.928a5.085,5.085,0,0,1-3.529-5.251Q2.947,22.244,3.766,8.4A3.673,3.673,0,0,1,6.781,5.053,2.749,2.749,0,0,1,9.6,8.094l-1.123,21c-.077.621-1.048.908-1.063.063.375-7.016.867-14.042,1.125-21.051A1.75,1.75,0,0,0,6.795,6.221,2.227,2.227,0,0,0,4.83,8.326C4.181,17.557,3.79,26.78,3.35,36a3.922,3.922,0,0,0,3.911,4.284,5.006,5.006,0,0,0,1.512-.4,5.383,5.383,0,0,0,2.878-4.368c.547-9.285,1.067-18.568,1.479-27.845.141-3.614-2.555-6.7-5.954-6.515a7.944,7.944,0,0,0-2.136.523,7.984,7.984,0,0,0-4,4.288C1.021,6.013.985,6.1.985,6.1L0,5.873s.057-.14.086-.208C1.788,1.686,6.232-1.2,10.157.493Z" transform="translate(0 0)" fill="#6bc1ff"/></g></svg>