<?xml version="1.0" standalone="no"?><!-- Generator: Gravit.io --><svg xmlns="http://www.w3.org/2000/svg" xmlns:xlink="http://www.w3.org/1999/xlink" style="isolation:isolate" viewBox="0 0 400 150" width="400" height="150"><defs><clipPath id="_clipPath_DbfKbWWiNUOZixRFW27bgucdyQRnSrfx"><rect width="400" height="150"/></clipPath></defs><g clip-path="url(#_clipPath_DbfKbWWiNUOZixRFW27bgucdyQRnSrfx)"><rect width="400" height="150" style="fill:rgb(199,237,230)"/><path d=" M -441.667 -37.149 L -441.667 280.323 L 909.333 280.323 L 909.333 -37.149 L -441.667 -37.149 Z " fill="none"/><path d=" M -339.401 93.778 C -339.401 93.778 -280.506 118.783 -149.127 113.282 C -17.749 107.78 95.785 84.556 184.604 92.277 C 273.423 99.998 370.572 113.345 392.262 113.924 C 413.952 114.504 370.349 121.783 459.444 110.781 C 548.538 99.779 536.457 162.293 536.457 162.293 L -357.522 162.293 L -339.401 93.778 Z " fill="rgb(199,237,230)"/><path d=" M 403.739 116.499 C 370.721 116.39 264.586 113.733 303.288 108.469 C 341.99 103.206 373.626 97.837 403.739 94.53 C 433.852 91.224 436.757 116.608 403.739 116.499 Z " fill="rgb(138,206,241)"/><path d=" M 214.893 141.938 C 181.924 141.938 142.219 138.864 81.558 131.604 C 20.898 124.345 73.606 126.192 81.558 126.387 C 89.51 126.583 94.051 126.687 105.64 126.687 C 117.23 126.687 68.85 128.79 140.847 126.018 C 212.843 123.246 276.707 101.494 309.305 107.222 C 341.904 112.95 371.417 117.246 401.829 117.383 C 432.242 117.521 401.829 110.981 401.829 117.383 C 401.829 123.786 416.135 134.753 401.829 133.789 C 387.523 132.826 386.951 132.403 359.506 132.403 C 332.06 132.403 314.151 133.127 288.898 136.535 C 263.646 139.943 247.861 141.938 214.893 141.938 Z " fill="rgb(175,162,255)"/><path d=" M 402.466 165.186 C 402.466 179.488 527.086 165.186 402.466 165.186 C 277.845 165.186 133.649 209.281 83.142 165.186 C 32.635 121.091 22.661 121.891 83.142 127 C 143.623 132.109 189.601 134.274 216.082 134.273 C 242.563 134.272 271.849 132.187 289.869 130.47 C 307.889 128.754 346.597 127.562 360.267 127.562 C 373.938 127.562 388.202 127.86 402.466 128.538 C 416.73 129.216 402.466 150.884 402.466 165.186 Z " fill="rgb(72,100,214)"/><path d=" M 762.158 304.076 L 760.677 152.524 C 760.677 152.524 639.933 123.686 442.858 136.725 C 245.782 149.763 184.998 134.835 100.509 128.111 C 16.02 121.387 -31.555 127.769 -108.15 132.898 C -184.745 138.026 -241.036 131.539 -241.036 131.539 L -267.025 304.076 L 762.158 304.076 Z " fill="rgb(45,53,59)"/></g></svg>