<svg xmlns="http://www.w3.org/2000/svg" xmlns:xlink="http://www.w3.org/1999/xlink" viewBox="0 0 355.99 295.05"><defs><style>.a{fill:none;}.b{isolation:isolate;}.c{fill:url(#a);}.d{fill:url(#b);}.e{fill:url(#c);}.f{fill:#0c0f38;}.f,.g{opacity:0.8;}.g,.i,.k{fill:#d4088c;}.g,.h,.i{mix-blend-mode:lighten;}.h,.s{fill:#6ee8fc;}.j{fill:#6ee1f8;}.l{fill:url(#d);}.m{fill:#3a9bd5;}.n{fill:url(#e);}.o{fill:url(#f);}.p{fill:url(#g);}.q{fill:url(#h);}.r{fill:url(#i);}.t{opacity:0.11;}.u{clip-path:url(#j);}.v{fill:url(#k);}.w{fill:url(#l);}.x{fill:url(#m);}.y{fill:url(#n);}.z{fill:url(#o);}.aa{fill:url(#p);}.ab{opacity:0.5;}.ac{fill:#fff;}</style><linearGradient id="a" x1="340.52" y1="1011.38" x2="387.54" y2="1011.38" gradientTransform="translate(996.06 673.39) rotate(135)" gradientUnits="userSpaceOnUse"><stop offset="0" stop-color="#d4088c"/><stop offset="0.04" stop-color="#cc088c"/><stop offset="0.46" stop-color="#85078a"/><stop offset="0.76" stop-color="#590689"/><stop offset="0.91" stop-color="#480689"/></linearGradient><linearGradient id="b" x1="220.72" y1="1115.02" x2="240.19" y2="1115.02" gradientTransform="translate(284.4 1164.55) rotate(180)" gradientUnits="userSpaceOnUse"><stop offset="0" stop-color="#6ee8fc"/><stop offset="0.16" stop-color="#6ae2fb"/><stop offset="0.37" stop-color="#5ed1f7"/><stop offset="0.61" stop-color="#4bb5f1"/><stop offset="0.87" stop-color="#308ee8"/><stop offset="0.96" stop-color="#267fe5"/></linearGradient><linearGradient id="c" x1="82.77" y1="798.78" x2="126.55" y2="798.78" gradientTransform="translate(1181.09 -146.57) rotate(71.42)" xlink:href="#b"/><linearGradient id="d" x1="-5203.4" y1="189.36" x2="-5066.42" y2="189.36" gradientTransform="matrix(-1, 0, 0, 1, -4801.38, 0)" gradientUnits="userSpaceOnUse"><stop offset="0" stop-color="#7bdaff"/><stop offset="1" stop-color="#59bdef"/></linearGradient><linearGradient id="e" x1="-5201.54" y1="189.96" x2="-5064.56" y2="189.96" gradientTransform="matrix(-1, 0, 0, 1, -4801.38, 0)" gradientUnits="userSpaceOnUse"><stop offset="0" stop-color="#2573ba"/><stop offset="1" stop-color="#0063ad"/></linearGradient><linearGradient id="f" x1="-5201.54" y1="189.96" x2="-5064.56" y2="189.96" gradientTransform="matrix(-1, 0, 0, 1, -4801.38, 0)" gradientUnits="userSpaceOnUse"><stop offset="0" stop-color="#2c75e4"/><stop offset="0.04" stop-color="#3461d5"/><stop offset="0.13" stop-color="#4140bb"/><stop offset="0.22" stop-color="#4b27a7"/><stop offset="0.32" stop-color="#521499"/><stop offset="0.41" stop-color="#570a91"/><stop offset="0.52" stop-color="#58068e"/><stop offset="0.66" stop-color="#5b078f"/><stop offset="0.76" stop-color="#640a92"/><stop offset="0.85" stop-color="#740f98"/><stop offset="0.93" stop-color="#8b17a0"/><stop offset="1" stop-color="#a31fa9"/></linearGradient><linearGradient id="g" x1="-5198.72" y1="189.97" x2="-5067.51" y2="189.97" gradientTransform="matrix(-1, 0, 0, 1, -4925.14, -60.74)" xlink:href="#d"/><linearGradient id="h" x1="-5185.04" y1="263.98" x2="-4991.59" y2="263.98" xlink:href="#f"/><radialGradient id="i" cx="-5190.97" cy="273.19" r="205.39" gradientTransform="matrix(-1, 0, 0, 1, -4801.38, 0)" gradientUnits="userSpaceOnUse"><stop offset="0" stop-color="#2979e4"/><stop offset="0.24" stop-color="#4958cd"/><stop offset="0.57" stop-color="#6e33b2"/><stop offset="0.83" stop-color="#851ba1"/><stop offset="1" stop-color="#8d139b"/></radialGradient><clipPath id="j" transform="translate(-123.76 -60.74)"><polygon class="a" points="281.56 115.16 397.34 182 383.17 265.56 267.47 198.76 281.56 115.16"/></clipPath><linearGradient id="k" x1="-5208.71" y1="216.11" x2="-4993.23" y2="216.11" gradientTransform="matrix(-1, 0, 0, 1, -4801.38, 0)" gradientUnits="userSpaceOnUse"><stop offset="0" stop-color="#c0bff6"/><stop offset="0.29" stop-color="#c5c4f7"/><stop offset="0.64" stop-color="#d3d2f9"/><stop offset="1" stop-color="#e9e9fd"/></linearGradient><radialGradient id="l" cx="215.73" cy="167.94" r="40.15" gradientUnits="userSpaceOnUse"><stop offset="0" stop-color="#22215b"/><stop offset="0.33" stop-color="#1e1e55"/><stop offset="0.75" stop-color="#141645"/><stop offset="1" stop-color="#0c0f38"/></radialGradient><radialGradient id="m" cx="223.35" cy="160.84" r="38.24" xlink:href="#l"/><radialGradient id="n" cx="237.15" cy="161.59" r="44.4" xlink:href="#l"/><radialGradient id="o" cx="243.4" cy="157.99" r="44.4" xlink:href="#l"/><radialGradient id="p" cx="249.64" cy="154.38" r="44.4" xlink:href="#l"/></defs><title>pc</title><g class="b"><circle class="c" cx="23.51" cy="215.66" r="23.51"/><circle class="d" cx="53.94" cy="49.53" r="9.74"/><circle class="e" cx="456.63" cy="205.11" r="17.5" transform="translate(-135.04 322.22) rotate(-45)"/><path class="f" d="M461.11,276c-7,1.37-14.66-.82-17-4.88s1.42-8.46,8.45-9.83,14.66.82,17,4.89S468.15,274.62,461.11,276Z" transform="translate(-123.76 -60.74)"/><ellipse class="f" cx="23.79" cy="284.25" rx="18.7" ry="10.8"/><path class="f" d="M179.84,149.62c-3.52.69-7.32-.41-8.51-2.44s.71-4.22,4.23-4.9,7.32.41,8.5,2.43S183.35,148.94,179.84,149.62Z" transform="translate(-123.76 -60.74)"/><circle class="g" cx="118.26" cy="9.02" r="2.49"/><circle class="g" cx="74.54" cy="262.66" r="3.01"/><path class="h" d="M180.79,310.09a1.55,1.55,0,1,1-1.55-1.54A1.54,1.54,0,0,1,180.79,310.09Z" transform="translate(-123.76 -60.74)"/><path class="h" d="M443.38,253a1.6,1.6,0,1,1-1.6-1.6A1.59,1.59,0,0,1,443.38,253Z" transform="translate(-123.76 -60.74)"/><circle class="h" cx="21.54" cy="84.32" r="2.25"/><path class="h" d="M315.75,63a2.25,2.25,0,1,1-2.25-2.25A2.25,2.25,0,0,1,315.75,63Z" transform="translate(-123.76 -60.74)"/><path class="h" d="M156.71,140.07a1.25,1.25,0,1,1-1.25-1.25A1.24,1.24,0,0,1,156.71,140.07Z" transform="translate(-123.76 -60.74)"/><path class="i" d="M371.24,71a1.48,1.48,0,1,1-1.48-1.47A1.48,1.48,0,0,1,371.24,71Z" transform="translate(-123.76 -60.74)"/><polygon class="j" points="31.24 158.12 30.7 156.19 34.98 155 33.78 150.71 35.71 150.18 37.45 156.38 31.24 158.12"/><polygon class="j" points="27.46 164.83 26.93 162.9 31.2 161.71 30.01 157.42 31.93 156.88 33.67 163.09 27.46 164.83"/><polygon class="j" points="31.48 162.67 29.74 156.46 35.95 154.73 36.48 156.65 32.2 157.85 33.4 162.13 31.48 162.67"/><path class="j" d="M302.92,75.78A4.76,4.76,0,1,1,307.68,71,4.76,4.76,0,0,1,302.92,75.78Zm0-7.52A2.76,2.76,0,1,0,305.68,71,2.77,2.77,0,0,0,302.92,68.26Z" transform="translate(-123.76 -60.74)"/><path class="j" d="M407.33,313.94l-5.4-5.4,5.4-5.4,5.4,5.4Zm-2.57-5.4,2.57,2.58,2.58-2.58L407.33,306Z" transform="translate(-123.76 -60.74)"/><rect class="k" x="421.38" y="116.29" width="2" height="8.18" transform="translate(-85.15 273.22) rotate(-45.01)"/><rect class="k" x="418.29" y="119.38" width="8.18" height="2" transform="translate(-85.16 273.19) rotate(-45)"/><path class="i" d="M127.37,186.66a1.48,1.48,0,1,1-1.48-1.47A1.47,1.47,0,0,1,127.37,186.66Z" transform="translate(-123.76 -60.74)"/><path class="f" d="M191.2,265.72l117.37,67.77a4.84,4.84,0,0,0,4.34.18l70-40.44c1.11-.64,1-1.76-.31-2.51L265.27,223a4.84,4.84,0,0,0-4.34-.18l-70,40.44C189.78,263.86,189.92,265,191.2,265.72Z" transform="translate(-123.76 -60.74)"/><path class="l" d="M265.06,197.88l14.84-88-1.2-.5,1.8-1h0a1.32,1.32,0,0,1,1.39.1l118.57,68.46a3.35,3.35,0,0,1,1.54,3L387,268.62a1.12,1.12,0,0,1-.63.91h0l-1.75,1-.3-1.64.1,0-117.86-68A3.36,3.36,0,0,1,265.06,197.88Z" transform="translate(-123.76 -60.74)"/><path class="m" d="M399.79,179.29l1.95-.86a2.73,2.73,0,0,1,.25,1.47L387,268.62a1.12,1.12,0,0,1-.63.91h0l-1.75,1-.3-1.64.1,0-6-3.44Z" transform="translate(-123.76 -60.74)"/><path class="n" d="M264.74,202l118.57,68.45c.92.53,1.7.23,1.86-.72l15-88.72a3.38,3.38,0,0,0-1.54-3L280,109.5c-.92-.53-1.7-.23-1.86.72l-15,88.72A3.38,3.38,0,0,0,264.74,202Z" transform="translate(-123.76 -60.74)"/><path class="o" d="M264.74,202l118.57,68.45c.92.53,1.7.23,1.86-.72l15-88.72a3.38,3.38,0,0,0-1.54-3L280,109.5c-.92-.53-1.7-.23-1.86.72l-15,88.72A3.38,3.38,0,0,0,264.74,202Z" transform="translate(-123.76 -60.74)"/><polygon class="p" points="156.47 53.65 273.58 121.27 259.41 204.83 142.37 137.25 156.47 53.65"/><path class="q" d="M190.2,244l6.48,3.38,64.88-37.46a4.72,4.72,0,0,1,4.24.17l111.91,64.62c1.07-.6,6-2.95,6-2.95l-2.37,6.17h0a1.36,1.36,0,0,1-.66.74l-68.34,39.45a4.7,4.7,0,0,1-4.23-.17L193.53,251.78a2,2,0,0,1-1-1h0Z" transform="translate(-123.76 -60.74)"/><path class="r" d="M191.2,245l117.37,67.77a4.84,4.84,0,0,0,4.34.18l70-40.44c1.11-.64,1-1.76-.31-2.51L265.27,202.26a4.84,4.84,0,0,0-4.34-.18l-70,40.44C189.78,243.16,189.92,244.28,191.2,245Z" transform="translate(-123.76 -60.74)"/><path class="s" d="M191.2,243.88l117.37,67.76a4.84,4.84,0,0,0,4.34.18l70-40.44a1.51,1.51,0,0,0,.58-.53,1.16,1.16,0,0,1-.58,1.68l-70,40.44a4.84,4.84,0,0,1-4.34-.18L191.2,245c-1-.56-1.29-1.35-.89-2A2.49,2.49,0,0,0,191.2,243.88Z" transform="translate(-123.76 -60.74)"/><g class="t"><g class="u"><path class="v" d="M265.44,202.19,396.1,277.63a5.34,5.34,0,0,0,4.83.2l78-45c1.24-.72,1.08-2-.35-2.79L347.9,154.59a5.36,5.36,0,0,0-4.84-.2l-78,45C263.85,200.12,264,201.37,265.44,202.19Z" transform="translate(-123.76 -60.74)"/><polygon class="w" points="170.3 139.56 264.9 194.17 261.15 196.33 166.56 141.72 170.3 139.56"/><polygon class="x" points="180.27 133.8 270.18 185.71 266.43 187.87 176.52 135.97 180.27 133.8"/><polygon class="j" points="276.89 189.59 285.29 194.44 281.54 196.6 273.15 191.75 276.89 189.59"/><polygon class="j" points="269.48 196.81 275.32 200.19 271.58 202.35 265.73 198.98 269.48 196.81"/><polygon class="y" points="186.51 130.2 291.54 190.83 287.79 192.99 182.77 132.36 186.51 130.2"/><polygon class="z" points="192.76 126.59 297.78 187.22 294.03 189.39 189.01 128.75 192.76 126.59"/><polygon class="aa" points="199 122.98 304.03 183.62 300.28 185.78 195.26 125.15 199 122.98"/></g></g><polygon class="j" points="138.68 156.79 223.4 205.7 227.17 203.53 142.45 154.61 138.68 156.79"/><polygon class="j" points="129.45 162.12 208.91 208 212.68 205.82 133.21 159.94 129.45 162.12"/><polygon class="j" points="123.43 165.59 216.99 219.61 220.76 217.44 127.2 163.42 123.43 165.59"/><polygon class="j" points="117.42 169.06 210.98 223.08 214.75 220.91 121.18 166.89 117.42 169.06"/><polygon class="j" points="111.4 172.54 204.96 226.56 208.73 224.38 115.17 170.36 111.4 172.54"/><polygon class="j" points="228.52 208.66 232.29 210.83 236.06 208.66 232.29 206.48 228.52 208.66"/><polygon class="j" points="215.24 211.65 223.05 216.16 226.82 213.99 219 209.47 215.24 211.65"/><g class="ab"><polygon class="ac" points="166.14 78.61 173.89 83.09 174.11 81.74 166.37 77.27 166.14 78.61"/><polygon class="ac" points="175.13 83.8 179.35 86.24 179.58 84.89 175.36 82.46 175.13 83.8"/><polygon class="ac" points="185.91 90.03 188.97 91.79 189.19 90.44 186.14 88.68 185.91 90.03"/><polygon class="ac" points="183.69 88.74 184.73 89.34 184.96 88 183.91 87.39 183.69 88.74"/><polygon class="ac" points="180.61 86.96 182.5 88.06 182.73 86.71 180.84 85.62 180.61 86.96"/><polygon class="ac" points="172.27 88.89 175.32 90.66 175.55 89.31 172.5 87.55 172.27 88.89"/><polygon class="ac" points="165.11 84.76 171.09 88.21 171.31 86.87 165.33 83.41 165.11 84.76"/><polygon class="ac" points="173.68 106.54 179.66 110 179.89 108.65 173.91 105.2 173.68 106.54"/><polygon class="ac" points="170.61 104.76 172.5 105.86 172.73 104.51 170.83 103.42 170.61 104.76"/><polygon class="ac" points="174.68 100.39 180.66 103.85 180.89 102.5 174.91 99.05 174.68 100.39"/><polygon class="ac" points="171.6 98.61 173.5 99.71 173.72 98.36 171.83 97.27 171.6 98.61"/><polygon class="ac" points="169.27 133.08 158.01 126.57 157.78 127.92 169.05 134.43 169.27 133.08"/><polygon class="ac" points="173.24 135.38 170.46 133.77 170.23 135.11 173.02 136.72 173.24 135.38"/><polygon class="ac" points="193.04 136.68 181.77 130.17 181.55 131.51 192.81 138.02 193.04 136.68"/><polygon class="ac" points="197.01 138.97 194.22 137.36 194 138.71 196.78 140.32 197.01 138.97"/><polygon class="ac" points="161.58 125.27 158.53 123.5 158.3 124.85 161.35 126.61 161.58 125.27"/><polygon class="ac" points="180.15 129.25 177.09 127.48 176.87 128.83 179.92 130.59 180.15 129.25"/><polygon class="ac" points="168.74 129.41 162.76 125.95 162.53 127.29 168.51 130.75 168.74 129.41"/><polygon class="ac" points="171.82 131.18 169.92 130.09 169.7 131.43 171.59 132.53 171.82 131.18"/><polygon class="ac" points="179.04 135.35 173.06 131.89 172.83 133.24 178.81 136.69 179.04 135.35"/><polygon class="ac" points="182.11 137.12 180.22 136.03 179.99 137.37 181.89 138.47 182.11 137.12"/><polygon class="ac" points="179.63 132.32 176.58 130.56 176.35 131.9 179.4 133.66 179.63 132.32"/><polygon class="ac" points="186.79 136.46 180.81 133 180.59 134.35 186.57 137.8 186.79 136.46"/><polygon class="ac" points="189.87 138.24 187.97 137.14 187.75 138.49 189.64 139.58 189.87 138.24"/><polygon class="ac" points="165.29 124.04 159.04 120.43 158.82 121.78 165.06 125.38 165.29 124.04"/><polygon class="ac" points="170.99 127.33 166.47 124.72 166.25 126.07 170.76 128.68 170.99 127.33"/><polygon class="ac" points="175.22 129.78 172.17 128.02 171.94 129.36 175 131.12 175.22 129.78"/><polygon class="ac" points="204.82 143.47 198.58 139.87 198.35 141.21 204.6 144.82 204.82 143.47"/><polygon class="ac" points="210.52 146.77 206.01 144.16 205.78 145.5 210.3 148.11 210.52 146.77"/><polygon class="ac" points="214.76 149.22 211.71 147.45 211.48 148.79 214.53 150.56 214.76 149.22"/><polygon class="ac" points="202.38 102.9 208.63 106.51 208.85 105.16 202.61 101.56 202.38 102.9"/><polygon class="ac" points="196.68 99.61 201.2 102.22 201.42 100.87 196.91 98.26 196.68 99.61"/><polygon class="ac" points="192.45 97.16 195.5 98.92 195.72 97.58 192.67 95.82 192.45 97.16"/><polygon class="ac" points="200.31 98.32 206.55 101.93 206.78 100.58 200.53 96.97 200.31 98.32"/><polygon class="ac" points="194.61 95.03 199.12 97.64 199.35 96.29 194.83 93.68 194.61 95.03"/><polygon class="ac" points="190.37 92.58 193.43 94.34 193.65 93 190.6 91.23 190.37 92.58"/><polygon class="ac" points="175.09 104 177.2 105.22 177.43 103.88 175.32 102.66 175.09 104"/><polygon class="ac" points="171.12 101.71 173.91 103.32 174.14 101.97 171.35 100.36 171.12 101.71"/><polygon class="ac" points="165.85 120.99 159.6 117.38 159.38 118.72 165.62 122.33 165.85 120.99"/><polygon class="ac" points="171.55 124.28 167.03 121.67 166.8 123.02 171.32 125.62 171.55 124.28"/><polygon class="ac" points="175.78 126.73 172.73 124.96 172.5 126.31 175.56 128.07 175.78 126.73"/><polygon class="ac" points="162.23 115.53 160.12 114.31 159.89 115.65 162 116.87 162.23 115.53"/><polygon class="ac" points="166.2 117.82 163.41 116.21 163.19 117.56 165.97 119.17 166.2 117.82"/><polygon class="ac" points="171.88 121.1 167.38 118.5 167.16 119.85 171.65 122.44 171.88 121.1"/><polygon class="ac" points="177.96 95.53 180.07 96.75 180.3 95.41 178.19 94.19 177.96 95.53"/><polygon class="ac" points="173.99 93.24 176.78 94.85 177 93.51 174.22 91.9 173.99 93.24"/><polygon class="ac" points="168.32 89.96 172.81 92.56 173.03 91.21 168.54 88.62 168.32 89.96"/><polygon class="ac" points="181.17 100.52 185.67 103.11 185.89 101.77 181.4 99.17 181.17 100.52"/><polygon class="ac" points="173.83 96.52 179.88 100.01 180.11 98.67 174.06 95.17 173.83 96.52"/><polygon class="ac" points="170.75 94.74 172.65 95.83 172.87 94.49 170.98 93.39 170.75 94.74"/><polygon class="ac" points="167.8 93.03 169.69 94.13 169.92 92.78 168.03 91.69 167.8 93.03"/><polygon class="ac" points="168.21 110.38 174.19 113.84 174.41 112.5 168.43 109.04 168.21 110.38"/><polygon class="ac" points="165.13 108.61 167.02 109.7 167.25 108.36 165.36 107.26 165.13 108.61"/><polygon class="ac" points="168.62 114 170.73 115.21 170.96 113.87 168.85 112.65 168.62 114"/><polygon class="ac" points="176.06 111.53 178.17 112.75 178.4 111.41 176.29 110.19 176.06 111.53"/><polygon class="ac" points="179.07 113.27 184.13 116.19 184.36 114.85 179.3 111.92 179.07 113.27"/><polygon class="ac" points="185.03 116.71 188.04 118.45 188.27 117.1 185.26 115.36 185.03 116.71"/><polygon class="ac" points="164.65 111.7 167.44 113.31 167.66 111.97 164.88 110.36 164.65 111.7"/><polygon class="ac" points="164.39 114.86 166.5 116.08 166.72 114.73 164.61 113.51 164.39 114.86"/><polygon class="ac" points="160.42 112.56 163.2 114.17 163.43 112.83 160.64 111.22 160.42 112.56"/><polygon class="ac" points="173 109.77 174.9 110.86 175.13 109.52 173.23 108.42 173 109.77"/><polygon class="ac" points="170.05 108.06 171.94 109.16 172.17 107.81 170.28 106.72 170.05 108.06"/><polygon class="ac" points="184.6 92.63 191.06 96.36 191.28 95.01 184.82 91.28 184.6 92.63"/><polygon class="ac" points="177.36 88.44 183.41 91.94 183.64 90.6 177.59 87.1 177.36 88.44"/><polygon class="ac" points="174.28 86.67 176.18 87.76 176.4 86.42 174.51 85.32 174.28 86.67"/><polygon class="ac" points="171.33 84.96 173.22 86.06 173.45 84.71 171.56 83.62 171.33 84.96"/><polygon class="ac" points="169.72 84.03 165.63 81.67 165.85 80.32 169.94 82.68 169.72 84.03"/></g></g></svg>